<svg xmlns="http://www.w3.org/2000/svg" viewBox="0 0 820 270" width="820" height="270" fill="none">
  <defs>
    <style>
      .header { font: 600 17px -apple-system, BlinkMacSystemFont, 'Segoe UI', Roboto, Helvetica, Arial, sans-serif; fill: #F85D7F; }
      .subhead { font: 600 14px -apple-system, BlinkMacSystemFont, 'Segoe UI', Roboto, Helvetica, Arial, sans-serif; fill: #F8D866; }
      .label { font: 500 13px -apple-system, BlinkMacSystemFont, 'Segoe UI', Roboto, Helvetica, Arial, sans-serif; fill: #e6edf3; }
      .value { font: 400 12px -apple-system, BlinkMacSystemFont, 'Segoe UI', Roboto, Helvetica, Arial, sans-serif; fill: #8b949e; }
      .footer { font: 400 11px -apple-system, BlinkMacSystemFont, 'Segoe UI', Roboto, Helvetica, Arial, sans-serif; fill: #6e7681; }
    </style>
    <linearGradient id="cardGrad" x1="0%" y1="0%" x2="100%" y2="100%">
      <stop offset="0%" stop-color="#0D1117" />
      <stop offset="100%" stop-color="#161b22" />
    </linearGradient>
  </defs>

  <!-- Background Card -->
  <rect x="1.5" y="1.5" width="817" height="267" rx="12" fill="url(#cardGrad)" stroke="#7F3FBF" stroke-width="2"/>

  <!-- Title Banner -->
  <text x="30" y="36" class="header">Languages &amp; Tools Ranking</text>
  <text x="790" y="36" text-anchor="end" class="footer">Updated: September 14, 2026</text>
  <line x1="30" y1="48" x2="790" y2="48" stroke="#30363d" stroke-width="1"/>

  <!-- Column 1: All-Time Ranking -->
  <g transform="translate(30, 68)">
    <!-- Material Symbols: Trophy (Rounded Filled) -->
    <svg x="0" y="-14" width="18" height="18" viewBox="0 -960 960 960" fill="#F8D866">
      <path d="M284-526v-166H180v44q0 45 29.5 78.5T284-526Zm392 0q45-10 74.5-43.5T780-648v-44H676v166ZM450-180v-148q-54-11-96-46.5T296-463q-74-8-125-60t-51-125v-44q0-24.75 17.63-42.38Q155.25-752 180-752h104v-28q0-24.75 17.63-42.38Q319.25-840 344-840h272q24.75 0 42.38 17.62Q676-804.75 676-780v28h104q24.75 0 42.38 17.62Q840-716.75 840-692v44q0 73-51 125t-125 60q-16 53-58 88.5T510-328v148h122q12.75 0 21.38 8.68 8.62 8.67 8.62 21.5 0 12.82-8.62 21.32-8.63 8.5-21.38 8.5H328q-12.75 0-21.37-8.68-8.63-8.67-8.63-21.5 0-12.82 8.63-21.32 8.62-8.5 21.37-8.5h122Z"/>
    </svg>
    <text x="25" y="0" class="subhead">All-Time Codebase</text>

    <!-- Item 1: Python -->
    <circle cx="6" cy="20" r="5" fill="#3572A5"/>
    <text x="20" y="24" class="label">Python</text>
    <text x="350" y="24" text-anchor="end" class="value">62.2 MB (55.7%)</text>
    <!-- Progress Bar Track & Fill -->
    <rect x="20" y="30" width="330" height="6" rx="3" fill="#21262d"/>
    <rect x="20" y="30" width="183" height="6" rx="3" fill="#3572A5"/>

    <!-- Item 2: Jupyter Notebook -->
    <circle cx="6" cy="58" r="5" fill="#DA5B0B"/>
    <text x="20" y="62" class="label">Jupyter Notebook</text>
    <text x="350" y="62" text-anchor="end" class="value">42.5 MB (38.0%)</text>
    <!-- Progress Bar Track & Fill -->
    <rect x="20" y="68" width="330" height="6" rx="3" fill="#21262d"/>
    <rect x="20" y="68" width="124" height="6" rx="3" fill="#DA5B0B"/>

    <!-- Item 3: Cython -->
    <circle cx="6" cy="96" r="5" fill="#fed10a"/>
    <text x="20" y="100" class="label">Cython</text>
    <text x="350" y="100" text-anchor="end" class="value">1.4 MB (1.3%)</text>
    <!-- Progress Bar Track & Fill -->
    <rect x="20" y="106" width="330" height="6" rx="3" fill="#21262d"/>
    <rect x="20" y="106" width="8" height="6" rx="3" fill="#fed10a"/>

    <!-- Item 4: TypeScript -->
    <circle cx="6" cy="134" r="5" fill="#3178c6"/>
    <text x="20" y="138" class="label">TypeScript</text>
    <text x="350" y="138" text-anchor="end" class="value">1.1 MB (0.9%)</text>
    <!-- Progress Bar Track & Fill -->
    <rect x="20" y="144" width="330" height="6" rx="3" fill="#21262d"/>
    <rect x="20" y="144" width="8" height="6" rx="3" fill="#3178c6"/>

    <!-- Item 5: Dart -->
    <circle cx="6" cy="172" r="5" fill="#00B4AB"/>
    <text x="20" y="176" class="label">Dart</text>
    <text x="350" y="176" text-anchor="end" class="value">886 KB (0.8%)</text>
    <!-- Progress Bar Track & Fill -->
    <rect x="20" y="182" width="330" height="6" rx="3" fill="#21262d"/>
    <rect x="20" y="182" width="8" height="6" rx="3" fill="#00B4AB"/>
  </g>

  <!-- Divider Line -->
  <line x1="410" y1="60" x2="410" y2="245" stroke="#30363d" stroke-dasharray="4 4" stroke-width="1"/>

  <!-- Column 2: Currently Coding (Past 30 Days) -->
  <g transform="translate(435, 68)">
    <!-- Material Symbols: Mode Heat (Rounded Filled) -->
    <svg x="0" y="-14" width="18" height="18" viewBox="0 -960 960 960" fill="#F85D7F">
      <path d="M160-400q0-116 71.5-225T428-811q17-11 34.5-.5T480-780v72q0 34 23.5 57t57.5 23q18 0 33.5-7.5T622-658q8-9 18-12.5t19 2.5q66 45 103.5 116T800-400q0 95-49 171.5T622-113q23-26 35.5-58t12.5-67q0-38-14-71.5T615-370L480-502 346-370q-28 27-42 60.5T290-238q0 35 12.5 67t35.5 58q-80-39-129-115.5T160-400Zm320-18 92 90q18 18 28 41t10 49q0 53-38 90.5T480-110q-54 0-92-37.5T350-238q0-26 9.5-49t28.5-41l92-90Z"/>
    </svg>
    <text x="25" y="0" class="subhead">Currently Coding (Past 30 Days)</text>

    <!-- Item 1: Python -->
    <circle cx="6" cy="20" r="5" fill="#3572A5"/>
    <text x="20" y="24" class="label">Python</text>
    <text x="350" y="24" text-anchor="end" class="value">+23,308 lines (36.1%)</text>
    <!-- Progress Bar Track & Fill -->
    <rect x="20" y="30" width="330" height="6" rx="3" fill="#21262d"/>
    <rect x="20" y="30" width="117" height="6" rx="3" fill="#3572A5"/>

    <!-- Item 2: Jupyter Notebook -->
    <circle cx="6" cy="58" r="5" fill="#DA5B0B"/>
    <text x="20" y="62" class="label">Jupyter Notebook</text>
    <text x="350" y="62" text-anchor="end" class="value">+22,800 lines (35.3%)</text>
    <!-- Progress Bar Track & Fill -->
    <rect x="20" y="68" width="330" height="6" rx="3" fill="#21262d"/>
    <rect x="20" y="68" width="116" height="6" rx="3" fill="#DA5B0B"/>

    <!-- Item 3: TypeScript -->
    <circle cx="6" cy="96" r="5" fill="#3178c6"/>
    <text x="20" y="100" class="label">TypeScript</text>
    <text x="350" y="100" text-anchor="end" class="value">+11,660 lines (18.0%)</text>
    <!-- Progress Bar Track & Fill -->
    <rect x="20" y="106" width="330" height="6" rx="3" fill="#21262d"/>
    <rect x="20" y="106" width="58" height="6" rx="3" fill="#3178c6"/>

    <!-- Item 4: JavaScript -->
    <circle cx="6" cy="134" r="5" fill="#f1e05a"/>
    <text x="20" y="138" class="label">JavaScript</text>
    <text x="350" y="138" text-anchor="end" class="value">+3,634 lines (5.6%)</text>
    <!-- Progress Bar Track & Fill -->
    <rect x="20" y="144" width="330" height="6" rx="3" fill="#21262d"/>
    <rect x="20" y="144" width="17" height="6" rx="3" fill="#f1e05a"/>

    <!-- Item 5: Kotlin -->
    <circle cx="6" cy="172" r="5" fill="#A97BFF"/>
    <text x="20" y="176" class="label">Kotlin</text>
    <text x="350" y="176" text-anchor="end" class="value">+1,692 lines (2.6%)</text>
    <!-- Progress Bar Track & Fill -->
    <rect x="20" y="182" width="330" height="6" rx="3" fill="#21262d"/>
    <rect x="20" y="182" width="8" height="6" rx="3" fill="#A97BFF"/>
  </g>
</svg>